<mxfile host="app.diagrams.net" agent="Mozilla/5.0 (Windows NT 10.0; Win64; x64) AppleWebKit/537.36 (KHTML, like Gecko) Chrome/130.0.0.0 Safari/537.36" version="24.7.17">
  <diagram name="Page-1" id="53EptZiF0VgPAhtHQbv1">
    <mxGraphModel dx="1839" dy="1613" grid="1" gridSize="10" guides="1" tooltips="1" connect="1" arrows="1" fold="1" page="1" pageScale="1" pageWidth="850" pageHeight="1100" math="0" shadow="0">
      <root>
        <mxCell id="0" />
        <mxCell id="1" parent="0" />
        <mxCell id="XSrR4Fl4yp7n7AM9qIPY-21" value="" style="swimlane;startSize=0;" vertex="1" parent="1">
          <mxGeometry x="-850" y="-980" width="380" height="260" as="geometry">
            <mxRectangle x="-850" y="-980" width="50" height="40" as="alternateBounds" />
          </mxGeometry>
        </mxCell>
        <mxCell id="XSrR4Fl4yp7n7AM9qIPY-11" value="&lt;span style=&quot;text-align: left;&quot;&gt;&lt;font color=&quot;#3399ff&quot;&gt;Represents The Database models that we have and their relationships&lt;/font&gt;&lt;/span&gt;" style="text;html=1;align=center;verticalAlign=middle;whiteSpace=wrap;rounded=0;" vertex="1" parent="XSrR4Fl4yp7n7AM9qIPY-21">
          <mxGeometry x="170" y="210" width="160" height="50" as="geometry" />
        </mxCell>
        <mxCell id="_j5DZ5Zvk47AiCZI-Ahg-1" value="" style="whiteSpace=wrap;html=1;aspect=fixed;fillColor=#dae8fc;strokeColor=#6c8ebf;" parent="1" vertex="1">
          <mxGeometry x="70" y="-1090" width="730" height="730" as="geometry" />
        </mxCell>
        <mxCell id="_j5DZ5Zvk47AiCZI-Ahg-8" value="&lt;font style=&quot;font-size: 12px;&quot;&gt;If Role == Admin&lt;/font&gt;" style="edgeStyle=orthogonalEdgeStyle;rounded=0;orthogonalLoop=1;jettySize=auto;html=1;exitX=0.75;exitY=1;exitDx=0;exitDy=0;entryX=0.5;entryY=0;entryDx=0;entryDy=0;" parent="1" source="_j5DZ5Zvk47AiCZI-Ahg-2" target="_j5DZ5Zvk47AiCZI-Ahg-6" edge="1">
          <mxGeometry relative="1" as="geometry" />
        </mxCell>
        <mxCell id="_j5DZ5Zvk47AiCZI-Ahg-9" value="&lt;font style=&quot;font-size: 12px;&quot;&gt;If Role == User&lt;/font&gt;" style="edgeStyle=orthogonalEdgeStyle;rounded=0;orthogonalLoop=1;jettySize=auto;html=1;exitX=0.25;exitY=1;exitDx=0;exitDy=0;entryX=0.5;entryY=0;entryDx=0;entryDy=0;" parent="1" source="_j5DZ5Zvk47AiCZI-Ahg-2" target="_j5DZ5Zvk47AiCZI-Ahg-7" edge="1">
          <mxGeometry relative="1" as="geometry" />
        </mxCell>
        <mxCell id="_j5DZ5Zvk47AiCZI-Ahg-2" value="&lt;h3 style=&quot;&quot;&gt;&lt;font style=&quot;font-size: 24px;&quot;&gt;Auth Service&lt;/font&gt;&lt;/h3&gt;" style="rounded=1;whiteSpace=wrap;html=1;" parent="1" vertex="1">
          <mxGeometry x="340" y="-950" width="170" height="60" as="geometry" />
        </mxCell>
        <mxCell id="_j5DZ5Zvk47AiCZI-Ahg-4" style="edgeStyle=orthogonalEdgeStyle;rounded=1;orthogonalLoop=1;jettySize=auto;html=1;exitX=0.5;exitY=1;exitDx=0;exitDy=0;fillColor=#fa6800;strokeColor=#C73500;curved=0;strokeWidth=2;" parent="1" source="_j5DZ5Zvk47AiCZI-Ahg-3" target="_j5DZ5Zvk47AiCZI-Ahg-2" edge="1">
          <mxGeometry relative="1" as="geometry" />
        </mxCell>
        <mxCell id="_j5DZ5Zvk47AiCZI-Ahg-3" value="&lt;font style=&quot;font-size: 20px;&quot;&gt;User&lt;/font&gt;" style="ellipse;whiteSpace=wrap;html=1;aspect=fixed;" parent="1" vertex="1">
          <mxGeometry x="385" y="-1080" width="80" height="80" as="geometry" />
        </mxCell>
        <mxCell id="_j5DZ5Zvk47AiCZI-Ahg-6" value="" style="rounded=0;whiteSpace=wrap;html=1;" parent="1" vertex="1">
          <mxGeometry x="470" y="-820" width="330" height="460" as="geometry" />
        </mxCell>
        <mxCell id="_j5DZ5Zvk47AiCZI-Ahg-7" value="" style="rounded=0;whiteSpace=wrap;html=1;" parent="1" vertex="1">
          <mxGeometry x="70" y="-820" width="310" height="460" as="geometry" />
        </mxCell>
        <mxCell id="_j5DZ5Zvk47AiCZI-Ahg-10" value="&lt;font color=&quot;#3399ff&quot; size=&quot;1&quot; style=&quot;&quot;&gt;&lt;b style=&quot;background-color: rgb(255, 255, 255); font-size: 18px;&quot;&gt;Dashboard Interface&lt;/b&gt;&lt;/font&gt;" style="text;html=1;align=center;verticalAlign=middle;whiteSpace=wrap;rounded=0;" parent="1" vertex="1">
          <mxGeometry x="572.82" y="-822.5" width="124.37" height="40" as="geometry" />
        </mxCell>
        <mxCell id="_j5DZ5Zvk47AiCZI-Ahg-11" value="&lt;font color=&quot;#3399ff&quot; style=&quot;font-size: 18px; background-color: rgb(255, 255, 255);&quot;&gt;&lt;b&gt;Store Interface&lt;/b&gt;&lt;/font&gt;" style="text;html=1;align=center;verticalAlign=middle;whiteSpace=wrap;rounded=0;" parent="1" vertex="1">
          <mxGeometry x="180" y="-822.5" width="90" height="45" as="geometry" />
        </mxCell>
        <mxCell id="_j5DZ5Zvk47AiCZI-Ahg-13" value="&lt;font style=&quot;font-size: 17px;&quot;&gt;Product Service&lt;/font&gt;" style="rounded=0;whiteSpace=wrap;html=1;fillColor=#67AB9F;" parent="1" vertex="1">
          <mxGeometry x="290" y="-760" width="270" height="60" as="geometry" />
        </mxCell>
        <mxCell id="_j5DZ5Zvk47AiCZI-Ahg-14" value="&lt;font style=&quot;font-size: 18px;&quot;&gt;Order Service&lt;/font&gt;" style="rounded=0;whiteSpace=wrap;html=1;strokeColor=#000000;fillColor=#67AB9F;" parent="1" vertex="1">
          <mxGeometry x="290" y="-670" width="270" height="60" as="geometry" />
        </mxCell>
        <mxCell id="_j5DZ5Zvk47AiCZI-Ahg-15" value="&lt;font style=&quot;font-size: 18px;&quot;&gt;Messages Service&lt;/font&gt;" style="rounded=0;whiteSpace=wrap;html=1;fillColor=#67AB9F;" parent="1" vertex="1">
          <mxGeometry x="290" y="-580" width="270" height="60" as="geometry" />
        </mxCell>
        <mxCell id="_j5DZ5Zvk47AiCZI-Ahg-16" value="&lt;font style=&quot;font-size: 18px;&quot;&gt;Profile Management&lt;/font&gt;" style="rounded=0;whiteSpace=wrap;html=1;fillColor=#EA6B66;" parent="1" vertex="1">
          <mxGeometry x="70" y="-740" width="130" height="60" as="geometry" />
        </mxCell>
        <mxCell id="_j5DZ5Zvk47AiCZI-Ahg-17" value="&lt;font style=&quot;font-size: 18px;&quot;&gt;User Management&lt;/font&gt;" style="rounded=0;whiteSpace=wrap;html=1;fillColor=#EA6B66;" parent="1" vertex="1">
          <mxGeometry x="640" y="-740" width="160" height="60" as="geometry" />
        </mxCell>
        <mxCell id="XSrR4Fl4yp7n7AM9qIPY-2" value="&lt;h1&gt;&lt;font style=&quot;font-size: 35px; background-color: rgb(230, 208, 222);&quot;&gt;Back-End&lt;/font&gt;&lt;/h1&gt;" style="rounded=0;whiteSpace=wrap;html=1;strokeColor=#E6D0DE;fillColor=#E6D0DE;" vertex="1" parent="1">
          <mxGeometry x="-850" y="-1100" width="850" height="90" as="geometry" />
        </mxCell>
        <mxCell id="XSrR4Fl4yp7n7AM9qIPY-5" value="Domain" style="rounded=0;whiteSpace=wrap;html=1;" vertex="1" parent="1">
          <mxGeometry x="-850" y="-780" width="120" height="60" as="geometry" />
        </mxCell>
        <mxCell id="XSrR4Fl4yp7n7AM9qIPY-16" style="edgeStyle=orthogonalEdgeStyle;rounded=0;orthogonalLoop=1;jettySize=auto;html=1;exitX=1;exitY=0.75;exitDx=0;exitDy=0;" edge="1" parent="1" source="XSrR4Fl4yp7n7AM9qIPY-6" target="XSrR4Fl4yp7n7AM9qIPY-13">
          <mxGeometry relative="1" as="geometry">
            <Array as="points">
              <mxPoint x="-730" y="-810" />
            </Array>
          </mxGeometry>
        </mxCell>
        <mxCell id="XSrR4Fl4yp7n7AM9qIPY-6" value="Infrastructure" style="rounded=0;whiteSpace=wrap;html=1;" vertex="1" parent="1">
          <mxGeometry x="-850" y="-840" width="120" height="60" as="geometry" />
        </mxCell>
        <mxCell id="XSrR4Fl4yp7n7AM9qIPY-18" style="edgeStyle=orthogonalEdgeStyle;rounded=0;orthogonalLoop=1;jettySize=auto;html=1;exitX=1;exitY=0.5;exitDx=0;exitDy=0;" edge="1" parent="1" source="XSrR4Fl4yp7n7AM9qIPY-7" target="XSrR4Fl4yp7n7AM9qIPY-17">
          <mxGeometry relative="1" as="geometry" />
        </mxCell>
        <mxCell id="XSrR4Fl4yp7n7AM9qIPY-7" value="Application" style="rounded=0;whiteSpace=wrap;html=1;" vertex="1" parent="1">
          <mxGeometry x="-850" y="-900" width="120" height="60" as="geometry" />
        </mxCell>
        <mxCell id="XSrR4Fl4yp7n7AM9qIPY-20" value="" style="edgeStyle=orthogonalEdgeStyle;rounded=0;orthogonalLoop=1;jettySize=auto;html=1;" edge="1" parent="1" source="XSrR4Fl4yp7n7AM9qIPY-8" target="XSrR4Fl4yp7n7AM9qIPY-19">
          <mxGeometry relative="1" as="geometry" />
        </mxCell>
        <mxCell id="XSrR4Fl4yp7n7AM9qIPY-8" value="API" style="rounded=0;whiteSpace=wrap;html=1;" vertex="1" parent="1">
          <mxGeometry x="-850" y="-960" width="120" height="60" as="geometry" />
        </mxCell>
        <mxCell id="XSrR4Fl4yp7n7AM9qIPY-13" value="&lt;font color=&quot;#3399ff&quot;&gt;Represents the Configurations&lt;/font&gt;&lt;div&gt;&lt;font color=&quot;#3399ff&quot;&gt;&amp;nbsp;and the Database Connection&amp;nbsp;&lt;/font&gt;&lt;span style=&quot;color: rgb(51, 153, 255); background-color: initial;&quot;&gt;and&lt;/span&gt;&lt;/div&gt;&lt;div&gt;&lt;span style=&quot;color: rgb(51, 153, 255); background-color: initial;&quot;&gt;&amp;nbsp;any other connection that we may have&lt;/span&gt;&lt;/div&gt;" style="text;html=1;align=center;verticalAlign=middle;resizable=0;points=[];autosize=1;strokeColor=none;fillColor=none;" vertex="1" parent="1">
          <mxGeometry x="-700" y="-830" width="240" height="60" as="geometry" />
        </mxCell>
        <mxCell id="XSrR4Fl4yp7n7AM9qIPY-17" value="&lt;font color=&quot;#3399ff&quot;&gt;Contains our Business Logic&lt;/font&gt;&lt;div&gt;&lt;font color=&quot;#3399ff&quot;&gt;&amp;nbsp;and is the place&lt;/font&gt;&lt;/div&gt;&lt;div&gt;&lt;font color=&quot;#3399ff&quot;&gt;&amp;nbsp;where the processing occurs&lt;/font&gt;&lt;/div&gt;" style="text;html=1;align=center;verticalAlign=middle;resizable=0;points=[];autosize=1;strokeColor=none;fillColor=none;" vertex="1" parent="1">
          <mxGeometry x="-690" y="-900" width="180" height="60" as="geometry" />
        </mxCell>
        <mxCell id="XSrR4Fl4yp7n7AM9qIPY-19" value="&lt;font color=&quot;#3399ff&quot;&gt;this is our window to the world and what our consumer will interact with&lt;/font&gt;" style="text;html=1;align=center;verticalAlign=middle;whiteSpace=wrap;rounded=0;" vertex="1" parent="1">
          <mxGeometry x="-680" y="-955" width="140" height="50" as="geometry" />
        </mxCell>
        <mxCell id="XSrR4Fl4yp7n7AM9qIPY-23" value="&lt;font color=&quot;#ea6b66&quot; style=&quot;font-size: 16px;&quot;&gt;Our Layers&lt;/font&gt;" style="rounded=1;whiteSpace=wrap;html=1;arcSize=50;" vertex="1" parent="1">
          <mxGeometry x="-715" y="-1015" width="110" height="45" as="geometry" />
        </mxCell>
        <mxCell id="XSrR4Fl4yp7n7AM9qIPY-26" style="edgeStyle=orthogonalEdgeStyle;rounded=0;orthogonalLoop=1;jettySize=auto;html=1;exitX=1;exitY=0.5;exitDx=0;exitDy=0;entryX=-0.007;entryY=0.409;entryDx=0;entryDy=0;entryPerimeter=0;" edge="1" parent="1" source="XSrR4Fl4yp7n7AM9qIPY-5" target="XSrR4Fl4yp7n7AM9qIPY-11">
          <mxGeometry relative="1" as="geometry" />
        </mxCell>
        <mxCell id="XSrR4Fl4yp7n7AM9qIPY-28" value="DataBase" style="shape=cylinder3;whiteSpace=wrap;html=1;boundedLbl=1;backgroundOutline=1;size=15;" vertex="1" parent="1">
          <mxGeometry x="-370" y="-560" width="70" height="100" as="geometry" />
        </mxCell>
      </root>
    </mxGraphModel>
  </diagram>
</mxfile>
